<svg width="96" height="24" viewBox="0 0 96 24" fill="none" xmlns="http://www.w3.org/2000/svg">
<path d="M6.54262 7.49384C6.43774 8.6125 6.36415 10.5922 7.02467 11.4349C7.02467 11.4349 6.71373 9.26014 9.50116 6.53158C10.6235 5.43317 10.8829 3.93918 10.491 2.81869C10.2684 2.18393 9.86177 1.65956 9.50851 1.29342C9.30245 1.07816 9.46068 0.723057 9.76058 0.735937C11.5747 0.816892 14.5148 1.32102 15.7641 4.45619C16.3124 5.83243 16.3529 7.25466 16.0916 8.70081C15.926 9.62443 15.3373 11.6777 16.6804 11.9298C17.639 12.1101 18.1026 11.3484 18.3105 10.8001C18.397 10.572 18.6969 10.5149 18.8588 10.6971C20.4779 12.5388 20.6159 14.708 20.2811 16.5755C19.6334 20.1854 15.9776 22.8127 12.3456 22.8127C7.80846 22.8127 4.19676 20.2167 3.26026 15.5176C2.88308 13.6207 3.07443 9.8673 5.99985 7.21786C6.21696 7.01915 6.57205 7.19578 6.54262 7.49384Z" fill="url(#paint0_radial_221_4)"/>
<path d="M14.0034 14.2444C12.3309 12.0917 13.0797 9.63547 13.49 8.65665C13.5452 8.52786 13.398 8.40643 13.2821 8.48554C12.5627 8.97495 11.089 10.1267 10.4027 11.7477C9.47357 13.939 9.5398 15.0116 10.0899 16.3216C10.4211 17.1109 10.0366 17.2784 9.84338 17.3078C9.65571 17.3372 9.48277 17.2121 9.34477 17.0815C8.9478 16.7004 8.66491 16.2162 8.52786 15.6832C8.49842 15.5691 8.34939 15.5378 8.28132 15.6317C7.76615 16.3437 7.49937 17.4863 7.48649 18.294C7.44601 20.7907 9.50852 22.8146 12.0034 22.8146C15.1478 22.8146 17.4384 19.3372 15.6317 16.4302C15.1073 15.5838 14.6142 15.03 14.0034 14.2444Z" fill="url(#paint1_radial_221_4)"/>
<path d="M30.0932 7.49384C29.9883 8.6125 29.9147 10.5922 30.5752 11.4349C30.5752 11.4349 30.2643 9.26014 33.0517 6.53158C34.174 5.43317 34.4334 3.93918 34.0416 2.81869C33.8189 2.18393 33.4123 1.65956 33.0591 1.29342C32.853 1.07816 33.0112 0.723057 33.3111 0.735937C35.1252 0.816892 38.0654 1.32102 39.3147 4.45619C39.863 5.83243 39.9034 7.25466 39.6422 8.70081C39.4766 9.62443 38.8878 11.6777 40.2309 11.9298C41.1895 12.1101 41.6532 11.3484 41.8611 10.8001C41.9475 10.572 42.2474 10.5149 42.4094 10.6971C44.0285 12.5388 44.1665 14.708 43.8316 16.5755C43.184 20.1854 39.5281 22.8127 35.8962 22.8127C31.359 22.8127 27.7473 20.2167 26.8108 15.5176C26.4336 13.6207 26.625 9.8673 29.5504 7.21786C29.7675 7.01915 30.1226 7.19578 30.0932 7.49384Z" fill="url(#paint2_radial_221_4)"/>
<path d="M37.5539 14.2444C35.8814 12.0917 36.6303 9.63547 37.0406 8.65665C37.0958 8.52786 36.9486 8.40643 36.8327 8.48554C36.1133 8.97495 34.6395 10.1267 33.9532 11.7477C33.0241 13.939 33.0903 15.0116 33.6405 16.3216C33.9716 17.1109 33.5871 17.2784 33.3939 17.3078C33.2063 17.3372 33.0333 17.2121 32.8953 17.0815C32.4983 16.7004 32.2154 16.2162 32.0784 15.6832C32.049 15.5691 31.8999 15.5378 31.8319 15.6317C31.3167 16.3437 31.0499 17.4863 31.037 18.294C30.9965 20.7907 33.0591 22.8146 35.5539 22.8146C38.6983 22.8146 40.989 19.3372 39.1822 16.4302C38.6578 15.5838 38.1647 15.03 37.5539 14.2444Z" fill="url(#paint3_radial_221_4)"/>
<path d="M53.6438 7.49384C53.5389 8.6125 53.4653 10.5922 54.1258 11.4349C54.1258 11.4349 53.8149 9.26014 56.6023 6.53158C57.7246 5.43317 57.984 3.93918 57.5922 2.81869C57.3695 2.18393 56.9629 1.65956 56.6097 1.29342C56.4036 1.07816 56.5618 0.723057 56.8617 0.735937C58.6758 0.816892 61.616 1.32102 62.8653 4.45619C63.4136 5.83243 63.454 7.25466 63.1928 8.70081C63.0272 9.62443 62.4384 11.6777 63.7815 11.9298C64.7401 12.1101 65.2038 11.3484 65.4117 10.8001C65.4981 10.572 65.798 10.5149 65.96 10.6971C67.5791 12.5388 67.7171 14.708 67.3822 16.5755C66.7346 20.1854 63.0787 22.8127 59.4468 22.8127C54.9096 22.8127 51.2979 20.2167 50.3614 15.5176C49.9842 13.6207 50.1756 9.8673 53.101 7.21786C53.3181 7.01915 53.6732 7.19578 53.6438 7.49384Z" fill="url(#paint4_radial_221_4)"/>
<path d="M61.1045 14.2444C59.432 12.0917 60.1809 9.63547 60.5912 8.65665C60.6464 8.52786 60.4992 8.40643 60.3833 8.48554C59.6639 8.97495 58.1901 10.1267 57.5038 11.7477C56.5747 13.939 56.6409 15.0116 57.1911 16.3216C57.5222 17.1109 57.1377 17.2784 56.9445 17.3078C56.7568 17.3372 56.5839 17.2121 56.4459 17.0815C56.0489 16.7004 55.766 16.2162 55.629 15.6832C55.5996 15.5691 55.4505 15.5378 55.3825 15.6317C54.8673 16.3437 54.6005 17.4863 54.5876 18.294C54.5471 20.7907 56.6097 22.8146 59.1045 22.8146C62.2489 22.8146 64.5396 19.3372 62.7328 16.4302C62.2084 15.5838 61.7153 15.03 61.1045 14.2444Z" fill="url(#paint5_radial_221_4)"/>
<path d="M78.2648 7.49384C78.1599 8.6125 78.0863 10.5922 78.7468 11.4349C78.7468 11.4349 78.4359 9.26014 81.2233 6.53158C82.3457 5.43317 82.6051 3.93918 82.2132 2.81869C81.9906 2.18393 81.5839 1.65956 81.2307 1.29342C81.0246 1.07816 81.1828 0.723057 81.4827 0.735937C83.2969 0.816892 86.237 1.32102 87.4863 4.45619C88.0346 5.83243 88.0751 7.25466 87.8138 8.70081C87.6482 9.62443 87.0594 11.6777 88.4026 11.9298C89.3611 12.1101 89.8248 11.3484 90.0327 10.8001C90.1192 10.572 90.4191 10.5149 90.581 10.6971C92.2001 12.5388 92.3381 14.708 92.0032 16.5755C91.3556 20.1854 87.6997 22.8127 84.0678 22.8127C79.5306 22.8127 75.9189 20.2167 74.9824 15.5176C74.6052 13.6207 74.7966 9.8673 77.722 7.21786C77.9391 7.01915 78.2942 7.19578 78.2648 7.49384Z" fill="url(#paint6_radial_221_4)"/>
<path d="M85.7255 14.2444C84.0531 12.0917 84.8019 9.63547 85.2122 8.65665C85.2674 8.52786 85.1202 8.40643 85.0043 8.48554C84.2849 8.97495 82.8112 10.1267 82.1249 11.7477C81.1957 13.939 81.262 15.0116 81.8121 16.3216C82.1433 17.1109 81.7587 17.2784 81.5656 17.3078C81.3779 17.3372 81.2049 17.2121 81.0669 17.0815C80.67 16.7004 80.3871 16.2162 80.25 15.6832C80.2206 15.5691 80.0716 15.5378 80.0035 15.6317C79.4883 16.3437 79.2215 17.4863 79.2087 18.294C79.1682 20.7907 81.2307 22.8146 83.7256 22.8146C86.8699 22.8146 89.1606 19.3372 87.3538 16.4302C86.8295 15.5838 86.3364 15.03 85.7255 14.2444Z" fill="url(#paint7_radial_221_4)"/>
<defs>
<radialGradient id="paint0_radial_221_4" cx="0" cy="0" r="1" gradientUnits="userSpaceOnUse" gradientTransform="translate(11.447 22.87) rotate(-179.751) scale(12.9873 21.3096)">
<stop offset="0.314" stop-color="#FF9800"/>
<stop offset="0.662" stop-color="#FF6D00"/>
<stop offset="0.972" stop-color="#F44336"/>
</radialGradient>
<radialGradient id="paint1_radial_221_4" cx="0" cy="0" r="1" gradientUnits="userSpaceOnUse" gradientTransform="translate(12.1764 9.94611) rotate(90.5787) scale(13.5887 10.2266)">
<stop offset="0.214" stop-color="#FFF176"/>
<stop offset="0.328" stop-color="#FFF27D"/>
<stop offset="0.487" stop-color="#FFF48F"/>
<stop offset="0.672" stop-color="#FFF7AD"/>
<stop offset="0.793" stop-color="#FFF9C4"/>
<stop offset="0.822" stop-color="#FFF8BD" stop-opacity="0.804"/>
<stop offset="0.863" stop-color="#FFF6AB" stop-opacity="0.529"/>
<stop offset="0.91" stop-color="#FFF38D" stop-opacity="0.209"/>
<stop offset="0.941" stop-color="#FFF176" stop-opacity="0"/>
</radialGradient>
<radialGradient id="paint2_radial_221_4" cx="0" cy="0" r="1" gradientUnits="userSpaceOnUse" gradientTransform="translate(34.9975 22.87) rotate(-179.751) scale(12.9873 21.3096)">
<stop offset="0.314" stop-color="#FF9800"/>
<stop offset="0.662" stop-color="#FF6D00"/>
<stop offset="0.972" stop-color="#F44336"/>
</radialGradient>
<radialGradient id="paint3_radial_221_4" cx="0" cy="0" r="1" gradientUnits="userSpaceOnUse" gradientTransform="translate(35.7269 9.94611) rotate(90.5787) scale(13.5887 10.2266)">
<stop offset="0.214" stop-color="#FFF176"/>
<stop offset="0.328" stop-color="#FFF27D"/>
<stop offset="0.487" stop-color="#FFF48F"/>
<stop offset="0.672" stop-color="#FFF7AD"/>
<stop offset="0.793" stop-color="#FFF9C4"/>
<stop offset="0.822" stop-color="#FFF8BD" stop-opacity="0.804"/>
<stop offset="0.863" stop-color="#FFF6AB" stop-opacity="0.529"/>
<stop offset="0.91" stop-color="#FFF38D" stop-opacity="0.209"/>
<stop offset="0.941" stop-color="#FFF176" stop-opacity="0"/>
</radialGradient>
<radialGradient id="paint4_radial_221_4" cx="0" cy="0" r="1" gradientUnits="userSpaceOnUse" gradientTransform="translate(58.5481 22.87) rotate(-179.751) scale(12.9873 21.3096)">
<stop offset="0.314" stop-color="#FF9800"/>
<stop offset="0.662" stop-color="#FF6D00"/>
<stop offset="0.972" stop-color="#F44336"/>
</radialGradient>
<radialGradient id="paint5_radial_221_4" cx="0" cy="0" r="1" gradientUnits="userSpaceOnUse" gradientTransform="translate(59.2775 9.94611) rotate(90.5787) scale(13.5887 10.2266)">
<stop offset="0.214" stop-color="#FFF176"/>
<stop offset="0.328" stop-color="#FFF27D"/>
<stop offset="0.487" stop-color="#FFF48F"/>
<stop offset="0.672" stop-color="#FFF7AD"/>
<stop offset="0.793" stop-color="#FFF9C4"/>
<stop offset="0.822" stop-color="#FFF8BD" stop-opacity="0.804"/>
<stop offset="0.863" stop-color="#FFF6AB" stop-opacity="0.529"/>
<stop offset="0.91" stop-color="#FFF38D" stop-opacity="0.209"/>
<stop offset="0.941" stop-color="#FFF176" stop-opacity="0"/>
</radialGradient>
<radialGradient id="paint6_radial_221_4" cx="0" cy="0" r="1" gradientUnits="userSpaceOnUse" gradientTransform="translate(83.1691 22.87) rotate(-179.751) scale(12.9873 21.3096)">
<stop offset="0.314" stop-color="#FF9800"/>
<stop offset="0.662" stop-color="#FF6D00"/>
<stop offset="0.972" stop-color="#F44336"/>
</radialGradient>
<radialGradient id="paint7_radial_221_4" cx="0" cy="0" r="1" gradientUnits="userSpaceOnUse" gradientTransform="translate(83.8985 9.94611) rotate(90.5787) scale(13.5887 10.2266)">
<stop offset="0.214" stop-color="#FFF176"/>
<stop offset="0.328" stop-color="#FFF27D"/>
<stop offset="0.487" stop-color="#FFF48F"/>
<stop offset="0.672" stop-color="#FFF7AD"/>
<stop offset="0.793" stop-color="#FFF9C4"/>
<stop offset="0.822" stop-color="#FFF8BD" stop-opacity="0.804"/>
<stop offset="0.863" stop-color="#FFF6AB" stop-opacity="0.529"/>
<stop offset="0.91" stop-color="#FFF38D" stop-opacity="0.209"/>
<stop offset="0.941" stop-color="#FFF176" stop-opacity="0"/>
</radialGradient>
</defs>
</svg>
