<svg width="97" height="97" viewBox="0 0 97 97" fill="none" xmlns="http://www.w3.org/2000/svg">
<path d="M72.5763 39.7475C76.093 39.7475 79.4658 38.3505 81.9525 35.8637M72.5763 39.7475C69.0595 39.7475 65.6868 38.3505 63.2001 35.8637M72.5763 39.7475V49.6914M81.9525 35.8637C84.4392 33.377 85.8362 30.0043 85.8362 26.4876M81.9525 35.8637L88.9835 42.8948M85.8362 26.4876C85.8362 22.9708 84.4392 19.5981 81.9525 17.1114M85.8362 26.4876H95.7801M81.9525 17.1114C79.4658 14.6247 76.093 13.2276 72.5763 13.2276M81.9525 17.1114L88.9835 10.0804M72.5763 13.2276C69.0595 13.2276 65.6868 14.6247 63.2001 17.1114M72.5763 13.2276V3.28375M63.2001 17.1114C60.7134 19.5981 59.3164 22.9708 59.3164 26.4876M63.2001 17.1114L56.1691 10.0804M59.3164 26.4876C59.3164 30.0043 60.7134 33.377 63.2001 35.8637M59.3164 26.4876H49.3725M63.2001 35.8637L56.1691 42.8948M70.3656 3.28375H74.787M87.4225 8.51937L90.5445 11.6413M95.7801 24.2769V28.6982M90.5445 41.3338L87.4225 44.4557M74.787 49.6914H70.3656M57.7301 44.4557L54.6081 41.3338M49.3725 28.6982V24.2769M54.6081 11.6413L57.7301 8.51937M29.3328 61.2933L36.391 55.9986C37.111 55.4578 37.9338 55.0697 38.809 54.8581C39.6842 54.6465 40.5934 54.6157 41.481 54.7678C42.3685 54.9199 43.2156 55.2515 43.9704 55.7425C44.7253 56.2334 45.3719 56.8732 45.8708 57.6228C46.5951 58.7099 46.9816 59.987 46.9816 61.2933C46.9816 62.5995 46.5951 63.8766 45.8708 64.9637L38.9308 75.3716C36.7982 78.5685 33.7456 81.0429 30.1766 82.4678L19.8404 86.6065M32.497 39.1442L17.3301 45.6455C12.849 47.5648 9.27798 51.1344 7.35672 55.6147L2.39111 67.1997C1.37733 69.5646 0.854863 72.1109 0.855439 74.684V96.099" stroke="black" stroke-width="1.5" stroke-linecap="round" stroke-linejoin="round"/>
<path d="M95.7801 58.1291V86.6065C95.7801 89.1241 94.78 91.5385 92.9998 93.3187C91.2196 95.0989 88.8052 96.099 86.2876 96.099H41.9894C39.4719 96.099 37.0574 95.0989 35.2773 93.3187C33.4971 91.5385 32.497 89.1241 32.497 86.6065V81.354M32.497 58.918V10.6668C32.497 8.14922 33.4971 5.73478 35.2773 3.9546C37.0574 2.17441 39.4719 1.17432 41.9894 1.17432H49.3725" stroke="black" stroke-width="1.5" stroke-linecap="round" stroke-linejoin="round"/>
</svg>
