<svg width="25" height="24" viewBox="0 0 25 24" fill="none" xmlns="http://www.w3.org/2000/svg">
<path d="M7.26478 7.49384C7.15991 8.6125 7.08632 10.5922 7.74683 11.4349C7.74683 11.4349 7.43589 9.26014 10.2233 6.53158C11.3457 5.43317 11.6051 3.93918 11.2132 2.81869C10.9906 2.18393 10.5839 1.65956 10.2307 1.29342C10.0246 1.07816 10.1828 0.723057 10.4827 0.735937C12.2969 0.816892 15.237 1.32102 16.4863 4.45619C17.0346 5.83243 17.0751 7.25466 16.8138 8.70081C16.6482 9.62443 16.0594 11.6777 17.4026 11.9298C18.3611 12.1101 18.8248 11.3484 19.0327 10.8001C19.1192 10.572 19.4191 10.5149 19.581 10.6971C21.2001 12.5388 21.3381 14.708 21.0032 16.5755C20.3556 20.1854 16.6997 22.8127 13.0678 22.8127C8.53063 22.8127 4.91893 20.2167 3.98242 15.5176C3.60525 13.6207 3.7966 9.8673 6.72202 7.21786C6.93912 7.01915 7.29422 7.19578 7.26478 7.49384Z" fill="url(#paint0_radial_221_14)"/>
<path d="M14.7255 14.2444C13.0531 12.0917 13.8019 9.63547 14.2122 8.65665C14.2674 8.52786 14.1202 8.40643 14.0043 8.48554C13.2849 8.97495 11.8112 10.1267 11.1249 11.7477C10.1957 13.939 10.262 15.0116 10.8121 16.3216C11.1433 17.1109 10.7587 17.2784 10.5656 17.3078C10.3779 17.3372 10.2049 17.2121 10.0669 17.0815C9.66996 16.7004 9.38707 16.2162 9.25003 15.6832C9.22059 15.5691 9.07156 15.5378 9.00349 15.6317C8.48832 16.3437 8.22153 17.4863 8.20865 18.294C8.16818 20.7907 10.2307 22.8146 12.7256 22.8146C15.8699 22.8146 18.1606 19.3372 16.3538 16.4302C15.8295 15.5838 15.3364 15.03 14.7255 14.2444Z" fill="url(#paint1_radial_221_14)"/>
<defs>
<radialGradient id="paint0_radial_221_14" cx="0" cy="0" r="1" gradientUnits="userSpaceOnUse" gradientTransform="translate(12.1691 22.87) rotate(-179.751) scale(12.9873 21.3096)">
<stop offset="0.314" stop-color="#FF9800"/>
<stop offset="0.662" stop-color="#FF6D00"/>
<stop offset="0.972" stop-color="#F44336"/>
</radialGradient>
<radialGradient id="paint1_radial_221_14" cx="0" cy="0" r="1" gradientUnits="userSpaceOnUse" gradientTransform="translate(12.8985 9.94611) rotate(90.5787) scale(13.5887 10.2266)">
<stop offset="0.214" stop-color="#FFF176"/>
<stop offset="0.328" stop-color="#FFF27D"/>
<stop offset="0.487" stop-color="#FFF48F"/>
<stop offset="0.672" stop-color="#FFF7AD"/>
<stop offset="0.793" stop-color="#FFF9C4"/>
<stop offset="0.822" stop-color="#FFF8BD" stop-opacity="0.804"/>
<stop offset="0.863" stop-color="#FFF6AB" stop-opacity="0.529"/>
<stop offset="0.91" stop-color="#FFF38D" stop-opacity="0.209"/>
<stop offset="0.941" stop-color="#FFF176" stop-opacity="0"/>
</radialGradient>
</defs>
</svg>
