<svg width="272" height="55" viewBox="0 0 272 55" fill="none" xmlns="http://www.w3.org/2000/svg">
<path d="M18.3333 41.25L27.5 34.2604L36.6667 41.25L33.2292 29.9062L42.3958 23.375H31.1667L27.5 11.4583L23.8333 23.375H12.6042L21.7708 29.9062L18.3333 41.25ZM27.5 50.4167C24.3299 50.4167 21.3507 49.8147 18.5625 48.6108C15.7743 47.4069 13.349 45.7745 11.2865 43.7135C9.22397 41.651 7.59154 39.2257 6.38918 36.4375C5.18682 33.6493 4.58487 30.6701 4.58334 27.5C4.58334 24.3299 5.18529 21.3507 6.38918 18.5625C7.59307 15.7743 9.2255 13.349 11.2865 11.2865C13.349 9.22395 15.7743 7.59152 18.5625 6.38916C21.3507 5.1868 24.3299 4.58486 27.5 4.58333C30.6701 4.58333 33.6493 5.18527 36.4375 6.38916C39.2257 7.59305 41.6511 9.22548 43.7136 11.2865C45.7761 13.349 47.4092 15.7743 48.6131 18.5625C49.817 21.3507 50.4182 24.3299 50.4167 27.5C50.4167 30.6701 49.8147 33.6493 48.6108 36.4375C47.407 39.2257 45.7745 41.651 43.7136 43.7135C41.6511 45.776 39.2257 47.4092 36.4375 48.6131C33.6493 49.817 30.6701 50.4182 27.5 50.4167Z" fill="black"/>
<path d="M73.3333 41.25L82.5 34.2604L91.6667 41.25L88.2292 29.9062L97.3958 23.375H86.1667L82.5 11.4583L78.8333 23.375H67.6042L76.7708 29.9062L73.3333 41.25ZM82.5 50.4167C79.3299 50.4167 76.3507 49.8147 73.5625 48.6108C70.7743 47.4069 68.349 45.7745 66.2865 43.7135C64.224 41.651 62.5915 39.2257 61.3892 36.4375C60.1868 33.6493 59.5849 30.6701 59.5833 27.5C59.5833 24.3299 60.1853 21.3507 61.3892 18.5625C62.5931 15.7743 64.2255 13.349 66.2865 11.2865C68.349 9.22395 70.7743 7.59152 73.5625 6.38916C76.3507 5.1868 79.3299 4.58486 82.5 4.58333C85.6701 4.58333 88.6493 5.18527 91.4375 6.38916C94.2257 7.59305 96.6511 9.22548 98.7136 11.2865C100.776 13.349 102.409 15.7743 103.613 18.5625C104.817 21.3507 105.418 24.3299 105.417 27.5C105.417 30.6701 104.815 33.6493 103.611 36.4375C102.407 39.2257 100.775 41.651 98.7136 43.7135C96.6511 45.776 94.2257 47.4092 91.4375 48.6131C88.6493 49.817 85.6701 50.4182 82.5 50.4167Z" fill="black"/>
<path d="M128.333 41.25L137.5 34.2604L146.667 41.25L143.229 29.9062L152.396 23.375H141.167L137.5 11.4583L133.833 23.375H122.604L131.771 29.9062L128.333 41.25ZM137.5 50.4167C134.33 50.4167 131.351 49.8147 128.563 48.6108C125.774 47.4069 123.349 45.7745 121.286 43.7135C119.224 41.651 117.592 39.2257 116.389 36.4375C115.187 33.6493 114.585 30.6701 114.583 27.5C114.583 24.3299 115.185 21.3507 116.389 18.5625C117.593 15.7743 119.225 13.349 121.286 11.2865C123.349 9.22395 125.774 7.59152 128.563 6.38916C131.351 5.1868 134.33 4.58486 137.5 4.58333C140.67 4.58333 143.649 5.18527 146.438 6.38916C149.226 7.59305 151.651 9.22548 153.714 11.2865C155.776 13.349 157.409 15.7743 158.613 18.5625C159.817 21.3507 160.418 24.3299 160.417 27.5C160.417 30.6701 159.815 33.6493 158.611 36.4375C157.407 39.2257 155.775 41.651 153.714 43.7135C151.651 45.776 149.226 47.4092 146.438 48.6131C143.649 49.817 140.67 50.4182 137.5 50.4167Z" fill="black"/>
<path d="M183.333 41.25L192.5 34.2604L201.667 41.25L198.229 29.9062L207.396 23.375H196.167L192.5 11.4583L188.833 23.375H177.604L186.771 29.9062L183.333 41.25ZM192.5 50.4167C189.33 50.4167 186.351 49.8147 183.562 48.6108C180.774 47.4069 178.349 45.7745 176.286 43.7135C174.224 41.651 172.592 39.2257 171.389 36.4375C170.187 33.6493 169.585 30.6701 169.583 27.5C169.583 24.3299 170.185 21.3507 171.389 18.5625C172.593 15.7743 174.225 13.349 176.286 11.2865C178.349 9.22395 180.774 7.59152 183.562 6.38916C186.351 5.1868 189.33 4.58486 192.5 4.58333C195.67 4.58333 198.649 5.18527 201.437 6.38916C204.226 7.59305 206.651 9.22548 208.714 11.2865C210.776 13.349 212.409 15.7743 213.613 18.5625C214.817 21.3507 215.418 24.3299 215.417 27.5C215.417 30.6701 214.815 33.6493 213.611 36.4375C212.407 39.2257 210.774 41.651 208.714 43.7135C206.651 45.776 204.226 47.4092 201.437 48.6131C198.649 49.817 195.67 50.4182 192.5 50.4167Z" fill="black"/>
<path d="M235.333 41.25L244.5 34.2604L253.667 41.25L250.229 29.9062L259.396 23.375H248.167L244.5 11.4583L240.833 23.375H229.604L238.771 29.9062L235.333 41.25ZM244.5 50.4167C241.33 50.4167 238.351 49.8147 235.562 48.6108C232.774 47.4069 230.349 45.7745 228.286 43.7135C226.224 41.651 224.592 39.2257 223.389 36.4375C222.187 33.6493 221.585 30.6701 221.583 27.5C221.583 24.3299 222.185 21.3507 223.389 18.5625C224.593 15.7743 226.225 13.349 228.286 11.2865C230.349 9.22395 232.774 7.59152 235.562 6.38916C238.351 5.1868 241.33 4.58486 244.5 4.58333C247.67 4.58333 250.649 5.18527 253.437 6.38916C256.226 7.59305 258.651 9.22548 260.714 11.2865C262.776 13.349 264.409 15.7743 265.613 18.5625C266.817 21.3507 267.418 24.3299 267.417 27.5C267.417 30.6701 266.815 33.6493 265.611 36.4375C264.407 39.2257 262.774 41.651 260.714 43.7135C258.651 45.776 256.226 47.4092 253.437 48.6131C250.649 49.817 247.67 50.4182 244.5 50.4167Z" fill="black"/>
</svg>
